<?xml version="1.0" encoding="utf-8"?>
<!-- Generator: Adobe Illustrator 26.0.1, SVG Export Plug-In . SVG Version: 6.00 Build 0)  -->
<svg version="1.1" id="Layer_1" xmlns="http://www.w3.org/2000/svg" xmlns:xlink="http://www.w3.org/1999/xlink" x="0px" y="0px"
	 viewBox="0 0 1080 1080" style="enable-background:new 0 0 1080 1080;" xml:space="preserve">
<style type="text/css">
	.st0{display:none;fill:#0C1727;enable-background:new    ;}
	.st1{font-family:'ErasITC-Demi';}
	.st2{font-size:110.0164px;}
	.st3{fill:#35A6BF;}
	.st4{display:none;}
	.st5{display:inline;fill:#35A6BF;}
	.st6{display:inline;}
	.st7{font-family:'Mango-Regular';}
	.st8{font-size:122.0137px;}
</style>
<text transform="matrix(1 0 0 1 531.7466 139.3449)" class="st0 st1 st2">Layer Lap</text>
<g>
	<g>
		<g>
			<path class="st3" d="M211.1,588.5c5,5.4,11.3,8.5,18.6,9.2c12.2,1.2,21.9-3.4,29-13.4c1.5-2.2,2.8-4.5,4.2-6.7l6-6.5
				c2.6,4,5.1,8,7.7,12c3.3,5.2,7.6,9.2,13.3,11.8c18,8.2,38.8-2.1,43-21.4c1.9-8.7,0.3-16.8-4.7-24.2c-5.5-8.1-11-16.1-16.5-24.2
				c-1.4-2.1-2.9-4.2-4.3-6.3c-5.4-7.8-10.7-15.7-16-23.5c-8.7-12.8-17.4-25.5-26.2-38.3c-0.4-0.5-0.7-1.1-1.5-1.7
				c-0.1,0.2-0.2,0.4-0.3,0.6c-3.9,6.7-7.8,13.3-11.8,20.1c0.4,0.6,0.7,1.2,1.1,1.7c8.5,12.5,16.9,25,25.4,37.4c1,1.5,2.1,3,3.1,4.6
				c5,7.3,10,14.7,15,22c4.5,6.5,9,13.1,13.4,19.6c1.5,2.1,2.1,4.4,1.8,7c-0.6,3.9-4,7-7.9,7.2c-3.4,0.2-6.1-1.2-8-4.1
				c-2.3-3.6-4.6-7.2-6.9-10.8c-1.4-2.1-2.7-4.2-4.1-6.4c-5.3-8.3-10.6-16.6-15.9-25c-3.9-6.1-7.8-12.3-11.7-18.4
				c-4.1-6.4-8-13-12.1-19.4c-0.4-0.6-0.6-1.2-1.1-1.6c-0.7,0.3-0.8,0.9-1.1,1.4c-2.4,4.1-4.9,8.3-7.3,12.5
				c-9.3,16-18.7,31.9-28,47.9c-2,3.5-3.5,7.2-4,11.2C201.7,572.6,204.4,581.3,211.1,588.5z M225.7,563.8c0.2-0.5,0.5-1,0.8-1.5
				c5.5-9.4,11-18.9,16.6-28.3c0.3-0.5,0.6-0.9,0.9-1.5c0.6,0.2,0.8,0.7,1,1.1c3.2,5,6.3,9.9,9.5,14.9c0.2,0.3,0.4,0.7,0.7,1
				l-5.2,7.9l-9.3,14l-0.4,0.7c-2,2.8-4.8,4.1-8.2,3.5c-3.4-0.5-5.8-2.6-6.8-6C224.6,567.7,224.8,565.7,225.7,563.8z"/>
		</g>
		<path class="st3" d="M243.5,466.8c-2.8,0-5,2.4-5,5.1c0,2.8,2.2,5,5,5s5-2.2,5-5C248.5,469.2,246.3,466.8,243.5,466.8z"/>
		<path class="st3" d="M228.3,487.4c-1.9,0-3.3,1.6-3.3,3.4c0,1.8,1.4,3.3,3.3,3.3s3.3-1.5,3.3-3.3
			C231.6,489,230.1,487.4,228.3,487.4z"/>
		<path class="st3" d="M228.3,470.4c-2.5,0-4.5,2.2-4.5,4.6c0,2.5,2,4.5,4.5,4.5s4.5-2,4.5-4.5C232.8,472.6,230.8,470.4,228.3,470.4
			z"/>
		<path class="st3" d="M241,450.8c-3.1,0-5.6,2.7-5.6,5.7c0,3.1,2.4,5.6,5.6,5.6c3.1,0,5.6-2.4,5.6-5.6
			C246.6,453.5,244.1,450.8,241,450.8z"/>
		<path class="st3" d="M251.5,484.6c-1.6,0-2.8,1.4-2.8,2.8c0,1.6,1.2,2.8,2.8,2.8s2.8-1.2,2.8-2.8
			C254.3,485.9,253.1,484.6,251.5,484.6z"/>
		<path class="st3" d="M241,480c-1.4,0-2.5,1.2-2.5,2.6c0,1.4,1.1,2.5,2.5,2.5s2.5-1.1,2.5-2.5C243.5,481.2,242.4,480,241,480z"/>
	</g>
	<g class="st4">
		<path class="st5" d="M388.7,502.5l-20,20v46.7c0,5.5,4.5,10,10,10c5.5,0,10-4.5,10-10v-66C388.8,502.9,388.7,502.7,388.7,502.5z"
			/>
		<path class="st5" d="M728.9,502.5l-20,20v46.7c0,5.5,4.5,10,10,10c5.5,0,10-4.5,10-10v-66C728.9,502.9,728.9,502.7,728.9,502.5z"
			/>
		<path class="st5" d="M462,548.8v20.3c0,5.6-4.6,10.1-10.1,10.1c-5.6,0-10.1-4.5-10.1-10.1v-20.4h-0.1c0-5.5-4.5-10-10-10
			c-5.6,0-10.2,4.5-10.2,10c0,2.4,0.7,4.4,2.1,6.2c0.6,0.9,3.5,3.2,4.4,4c2.8,2.8,3.4,7.4,1.6,11.1c-2.4,5.2-8.5,7.2-13.7,4.9
			l-2.1-1.3c-7.7-5.5-12.7-14.6-12.7-24.8v-0.1c0-16.8,13.7-30.5,30.6-30.5c0,0,8.2,0.1,13.1,3.1c1.8-2,4.3-3.1,7.2-3.1
			c5.5,0,10.1,4.5,10.1,10.1v20.4h0.1C462.1,548.7,462,548.7,462,548.8z"/>
		<path class="st5" d="M524.3,518.2c-5.5,0-10.1,4.5-10.1,10.1v20.5c0,5.5-4.6,10-10.3,10c-5.5,0-10-4.5-10-10v-20.5
			c0-5.6-4.8-10.1-10.2-10.1c-5.6,0-10.2,4.5-10.2,10.1v20.5c0,16.7,13.7,30.4,30.5,30.4c3.7,0,7.2-0.5,10.5-1.7v21.6
			c-0.2,5.5-4.4,10-10.1,10h0.6c-5.6,0-10,4.5-10,10c0,5.5,4.4,10.1,9.8,10.1c16.4-0.1,29.6-13.3,29.9-29.6v-71.3
			C534.6,522.7,530,518.2,524.3,518.2z"/>
		<path class="st5" d="M596.7,518.2c5.6,0,9.9,4.6,9.9,10.1c0,5.6-4.3,10-9.9,10h-20.7c-2.4,0.1-5,1.1-7.1,2.9
			c-3.9,4-3.9,10.6,0,14.4c1.7,1.6,3.8,2.7,5.9,2.9c1.8,0.1,4.8-0.1,5.9-0.1c4.1,0.2,7.7,2.7,9.2,6.7c2.2,6.5-2.8,12.6-8.8,13.7
			c-9.3,1.5-19.2-1.3-26.5-8.7c-11.8-12-11.8-31.4,0-43.2c6.6-6.6,15.1-8.8,23.5-8.8H596.7z M576.3,543.4c2.8,0,5,2.4,5,5.1
			c0,2.8-2.2,5-5,5c-2.8,0-5-2.2-5-5C571.3,545.9,573.5,543.4,576.3,543.4z"/>
		<path class="st5" d="M649.5,538.3h0.6c-5.4,0-9.6,4-10,9.3v21.6c0,5.5-4.5,10-10.1,10c-5.5,0-10-4.5-10-10v-40.9
			c0-5.6,4.5-10.1,10-10.1c2.8,0,5.2,1.1,7.1,2.9c3.9-1.8,8.2-2.8,12.6-2.9c5.5,0.1,9.9,4.6,9.9,10
			C659.5,533.8,655,538.3,649.5,538.3z"/>
		<path class="st5" d="M801.5,548.8v20.3c0,5.6-4.6,10.1-10.1,10.1c-5.6,0-10.1-4.5-10.1-10.1v-20.4h-0.1c0-5.5-4.5-10-10-10
			c-5.6,0-10.2,4.5-10.2,10c0,2.4,0.7,4.4,2.1,6.2c0.6,0.9,3.5,3.2,4.4,4c2.8,2.8,3.4,7.4,1.6,11.1c-2.4,5.2-8.5,7.2-13.7,4.9
			l-2.1-1.3c-7.7-5.5-12.7-14.6-12.7-24.8v-0.1c0-16.8,13.7-30.5,30.6-30.5c0,0,8.2,0.1,13.1,3.1c1.8-2,4.3-3.1,7.2-3.1
			c5.5,0,10.1,4.5,10.1,10.1v20.4h0.1C801.6,548.7,801.5,548.7,801.5,548.8z"/>
		<path class="st5" d="M864.6,573.6c-0.5,0.4-1.1,0.7-1.7,1.1l-0.2,0.2h-0.1c-5,2.4-11.1,0.2-13.5-4.8c-1.8-3.8-1.1-8.3,1.6-11.2
			c0.2-0.4,2.7-2.4,2.6-2.3c0.7-0.6,1.3-1.1,1.8-1.7c1.2-1.7,2.1-3.8,2.1-6.1c0-5.6-4.6-10.1-10.2-10.1c-1.7,0.1-3.9,0.2-6.3,2.3
			c-2.3,1.8-3.8,4.6-3.8,7.8v45.4c0,5.6-4.5,10.1-10.1,10.1s-10.2-4.5-10.2-10.1v-45.4c0.1-2.7,0.4-5.2,1-7.7
			c3.4-13.1,15.4-22.8,29.5-22.8c0,0,0,0,0.1,0c16.7,0,30.4,13.7,30.4,30.5C877.3,558.9,872.3,568,864.6,573.6z"/>
	</g>
	<g>
		<path class="st3" d="M375.5,580.6c-5.5,0-10.1-4.5-10.1-10.1v-66.4c0-5.5,4.5-10.1,10.1-10.1c5.5,0,10.1,4.5,10.1,10.1v66.4
			C385.5,576.1,381,580.6,375.5,580.6z"/>
		<path class="st3" d="M459.2,550.1v20.4c0,5.6-4.7,10.2-10.2,10.2c-5.6,0-10.2-4.5-10.2-10.2v-20.5h-0.1c0-5.5-4.5-10.1-10.1-10.1
			c-5.6,0-10.3,4.5-10.3,10.1c0,2.5,0.7,4.4,2.1,6.3c0.6,0.9,3.6,3.2,4.4,4.1c2.8,2.8,3.4,7.5,1.6,11.2c-2.5,5.3-8.6,7.2-13.8,4.9
			l-2.1-1.4c-7.7-5.5-12.8-14.7-12.8-24.9v-0.1c0-16.9,13.8-30.7,30.8-30.7c0,0,8.2,0.1,13.1,3.1c1.8-2,4.3-3.1,7.2-3.1
			c5.5,0,10.2,4.5,10.2,10.2v20.5h0.1C459.3,549.9,459.2,549.9,459.2,550.1z"/>
		<path class="st3" d="M481.1,620.8c0,5.8-4.8,10.3-10.3,10.3c-5.6,0-10.2-4.5-10.2-10.3c0-5.5,4.5-10.1,10.2-10.1
			C476.3,610.7,481.1,615.3,481.1,620.8z M532.3,529.4v20.6v0.5v50v0.2v0.2v0.1c-0.2,16.5-13.6,29.7-30.1,29.8
			c-5.4,0-9.8-4.7-9.8-10.2s4.4-10.1,10.1-10.1h-0.6c5.8,0,9.9-4.5,10.2-10.1v-21.7c-3.3,1.2-6.9,1.7-10.6,1.7
			c-16.9,0-30.7-13.8-30.7-30.6v-20.6c0-5.6,4.7-10.2,10.3-10.2c5.5,0,10.3,4.5,10.3,10.2v20.6c0,5.5,4.5,10.1,10.1,10.1
			c5.6,0,10.3-4.5,10.3-10.1v-20.6c0-5.6,4.7-10.2,10.2-10.2C527.7,519.2,532.3,523.8,532.3,529.4z"/>
		<path class="st3" d="M594.8,519.2c5.6,0,9.9,4.7,9.9,10.2c0,5.6-4.3,10.1-9.9,10.1h-20.9c-2.5,0.1-5,1.1-7.1,2.9
			c-3.9,4.1-3.9,10.7,0,14.5c1.7,1.6,3.8,2.7,5.9,2.9c1.8,0.1,4.8-0.1,5.9-0.1c4.2,0.2,7.7,2.7,9.2,6.8c2.2,6.5-2.8,12.6-8.8,13.8
			c-9.3,1.5-19.3-1.4-26.6-8.7c-11.9-12-11.9-31.6,0-43.5c6.6-6.6,15.2-8.8,23.7-8.8H594.8z M574.2,544.7c2.8,0,5,2.5,5,5.2
			c0,2.8-2.2,5-5,5s-5-2.2-5-5C569.2,547.1,571.4,544.7,574.2,544.7z"/>
		<path class="st3" d="M647.9,539.5h0.6c-5.4,0-9.7,4.1-10.1,9.3v21.7c0,5.5-4.5,10.1-10.2,10.1c-5.5,0-10.1-4.5-10.1-10.1v-41.1
			c0-5.6,4.5-10.2,10.1-10.2c2.8,0,5.3,1.1,7.1,2.9c3.9-1.8,8.2-2.8,12.6-2.9c5.5,0.1,9.9,4.7,9.9,10.1
			C658,535,653.4,539.5,647.9,539.5z"/>
		<path class="st3" d="M717.2,580.6c-5.5,0-10.1-4.5-10.1-10.1v-66.4c0-5.5,4.5-10.1,10.1-10.1s10.1,4.5,10.1,10.1v66.4
			C727.2,576.1,722.7,580.6,717.2,580.6z"/>
		<path class="st3" d="M800.9,550.1v20.4c0,5.6-4.7,10.2-10.2,10.2c-5.6,0-10.2-4.5-10.2-10.2v-20.5h-0.1c0-5.5-4.5-10.1-10.1-10.1
			c-5.6,0-10.3,4.5-10.3,10.1c0,2.5,0.7,4.4,2.1,6.3c0.6,0.9,3.6,3.2,4.4,4.1c2.8,2.8,3.4,7.5,1.6,11.2c-2.5,5.3-8.6,7.2-13.8,4.9
			l-2.1-1.4c-7.7-5.5-12.8-14.7-12.8-24.9v-0.1c0-16.9,13.8-30.7,30.8-30.7c0,0,8.2,0.1,13.1,3.1c1.8-2,4.3-3.1,7.2-3.1
			c5.5,0,10.2,4.5,10.2,10.2v20.5h0.1C801,549.9,800.9,549.9,800.9,550.1z"/>
		<path class="st3" d="M844.1,580.6H844c-14.2,0-26.3-9.8-29.7-23c-0.6-2.5-0.9-5-1-7.7v-45.7c0-5.6,4.7-10.2,10.3-10.2
			s10.2,4.5,10.2,10.2v45.7c0,3.2,1.5,6,3.8,7.9c2.5,2.1,4.7,2.2,6.4,2.3c5.6,0,10.3-4.5,10.3-10.2c0-3.8-1.7-6-3.9-7.9
			c-1.6-1.4-1.6-1.4-2.6-2.3c-2.7-2.9-3.4-7.5-1.6-11.3c2.5-5,8.6-7.2,13.6-4.8h0.1l0.2,0.2c0.6,0.4,1.2,0.7,1.7,1.1
			c7.7,5.6,12.8,14.7,12.8,24.9C874.7,566.9,861,580.6,844.1,580.6z"/>
	</g>
</g>
<g class="st4">
	<g class="st6">
		<path class="st3" d="M401.5,695.9c12.2,13,27.4,20.8,45.1,22.5c29.6,2.8,53.3-8.2,70.4-32.7c3.7-5.2,6.8-10.8,10.1-16.3l14.6-15.8
			c6.2,9.7,12.4,19.5,18.6,29.2c8,12.6,18.6,22.3,32.3,28.6c43.9,20,94.2-5,104.5-52.1c4.6-21.2,0.7-40.9-11.5-58.8
			c-13.4-19.6-26.8-39.2-40.2-58.8c-3.5-5.1-7-10.3-10.5-15.4c-13-19-26-38.1-39-57.1c-21.2-31-42.4-62-63.6-93
			c-0.9-1.3-1.6-2.8-3.5-4.1c-0.3,0.5-0.5,1-0.8,1.5c-9.5,16.2-19,32.4-28.6,48.8c1,1.5,1.8,2.9,2.7,4.2
			c20.6,30.3,41.1,60.7,61.8,91c2.5,3.7,5,7.4,7.5,11.1c12.2,17.8,24.4,35.7,36.6,53.5c10.9,15.9,21.8,31.8,32.7,47.7
			c3.5,5.2,5.2,10.7,4.3,16.9c-1.4,9.5-9.8,17.1-19.3,17.6c-8.4,0.4-14.9-2.9-19.4-9.9c-5.6-8.7-11.1-17.5-16.7-26.2
			c-3.3-5.2-6.6-10.3-9.9-15.5c-12.9-20.2-25.8-40.5-38.6-60.7c-9.6-14.9-19-29.9-28.5-44.8c-9.9-15.7-19.5-31.5-29.3-47.2
			c-0.9-1.4-1.5-2.9-2.8-4c-1.6,0.7-2,2.2-2.8,3.5c-5.9,10.1-11.8,20.2-17.8,30.3c-22.7,38.8-45.4,77.6-68.2,116.4
			c-4.9,8.4-8.5,17.4-9.8,27.1C378.6,657.4,385,678.3,401.5,695.9z M436.8,636c0.6-1.2,1.3-2.4,2-3.5c13.4-22.9,26.8-45.9,40.3-68.8
			c0.7-1.2,1.4-2.3,2.2-3.5c1.5,0.4,1.9,1.6,2.5,2.6c7.7,12,15.4,24.1,23.1,36.2c0.5,0.8,1.1,1.7,1.6,2.5l-12.8,19.3l-22.6,34.1
			l-1.1,1.6c-4.9,6.8-11.7,9.9-19.9,8.6c-8.4-1.3-14-6.3-16.5-14.6C434.2,645.4,434.6,640.6,436.8,636z"/>
	</g>
	<path class="st5" d="M480.1,400.1c-6.8,0-12.2,5.9-12.2,12.5c0,6.8,5.3,12.2,12.2,12.2s12.2-5.3,12.2-12.2
		C492.2,406,486.9,400.1,480.1,400.1z"/>
	<path class="st5" d="M443.1,450.1c-4.5,0-8,3.9-8,8.2c0,4.5,3.5,8,8,8s8-3.5,8-8C451.1,454.1,447.6,450.1,443.1,450.1z"/>
	<path class="st5" d="M443.1,408.8c-6.2,0-11,5.4-11,11.3c0,6.1,4.8,11,11,11s11-4.8,11-11C454.1,414.2,449.3,408.8,443.1,408.8z"/>
	<path class="st5" d="M474.1,361.2c-7.6,0-13.5,6.6-13.5,13.9c0,7.6,5.9,13.5,13.5,13.5s13.5-5.9,13.5-13.5
		C487.6,367.7,481.7,361.2,474.1,361.2z"/>
	<path class="st5" d="M499.6,443.3c-3.8,0-6.8,3.3-6.8,6.9c0,3.8,3,6.8,6.8,6.8s6.8-3,6.8-6.8C506.4,446.6,503.4,443.3,499.6,443.3z
		"/>
	<path class="st5" d="M474,432.2c-3.4,0-6.1,3-6.1,6.2c0,3.4,2.7,6.1,6.1,6.1s6.1-2.7,6.1-6.1C480.1,435.2,477.4,432.2,474,432.2z"
		/>
</g>
<g class="st4">
	<path class="st5" d="M247.2,460.8l-25,25v58.4c0,6.9,5.6,12.5,12.5,12.5c6.9,0,12.5-5.6,12.5-12.5v-82.5
		C247.2,461.4,247.2,461.1,247.2,460.8z"/>
	<path class="st5" d="M672.3,460.8l-25,25v58.4c0,6.9,5.6,12.5,12.5,12.5c6.9,0,12.5-5.6,12.5-12.5v-82.5
		C672.3,461.4,672.3,461.1,672.3,460.8z"/>
	<path class="st5" d="M338.7,518.7V544c0,7-5.8,12.7-12.7,12.7c-7,0-12.7-5.6-12.7-12.7v-25.5h-0.2c0-6.9-5.6-12.5-12.5-12.5
		c-7,0-12.8,5.6-12.8,12.5c0,3,0.9,5.5,2.6,7.8c0.8,1.1,4.4,4,5.5,5c3.5,3.5,4.3,9.3,2,13.9c-3,6.6-10.7,9-17.1,6.1l-2.6-1.7
		c-9.6-6.9-15.9-18.3-15.9-31v-0.2c0-21,17.1-38.1,38.3-38.1c0,0,10.2,0.2,16.3,3.8c2.3-2.4,5.3-3.8,9-3.8c6.9,0,12.7,5.6,12.7,12.7
		v25.5h0.2C338.9,518.6,338.7,518.6,338.7,518.7z"/>
	<path class="st5" d="M416.7,480.4c-6.9,0-12.7,5.6-12.7,12.6v25.6c0,6.9-5.8,12.5-12.8,12.5c-6.9,0-12.5-5.6-12.5-12.5v-25.6
		c0-7-5.9-12.6-12.8-12.6c-7,0-12.8,5.6-12.8,12.6v25.6c0,20.9,17.1,38,38.1,38c4.6,0,9-0.6,13.1-2.1v27
		c-0.3,6.9-5.5,12.5-12.6,12.5h0.8c-7,0-12.5,5.6-12.5,12.5c0,6.9,5.5,12.7,12.2,12.7c20.4-0.2,37.1-16.6,37.4-37.1v-89.1
		C429.5,486.1,423.8,480.4,416.7,480.4z"/>
	<path class="st5" d="M507.1,480.4c7,0,12.4,5.8,12.4,12.7c0,7-5.3,12.5-12.4,12.5h-25.9c-3,0.2-6.3,1.4-8.8,3.7
		c-4.9,5-4.9,13.3,0,18c2.1,2,4.7,3.4,7.3,3.7c2.3,0.2,5.9-0.2,7.3-0.2c5.2,0.3,9.6,3.4,11.4,8.4c2.7,8.1-3.5,15.7-11,17.1
		c-11.6,1.8-23.9-1.7-33.1-10.8c-14.8-14.9-14.8-39.2,0-54c8.2-8.2,18.9-11,29.4-11H507.1z M481.6,512c3.5,0,6.3,3,6.3,6.4
		c0,3.5-2.7,6.3-6.3,6.3c-3.5,0-6.3-2.7-6.3-6.3C475.4,515,478.1,512,481.6,512z"/>
	<path class="st5" d="M573.1,505.6h0.8c-6.7,0-12,5-12.5,11.6v27c0,6.9-5.6,12.5-12.7,12.5c-6.9,0-12.5-5.6-12.5-12.5v-51.1
		c0-7,5.6-12.7,12.5-12.7c3.5,0,6.6,1.4,8.8,3.7c4.9-2.3,10.2-3.5,15.7-3.7c6.9,0.2,12.4,5.8,12.4,12.5
		C585.6,499.9,580,505.6,573.1,505.6z"/>
	<path class="st5" d="M763.1,518.7V544c0,7-5.8,12.7-12.7,12.7c-7,0-12.7-5.6-12.7-12.7v-25.5h-0.2c0-6.9-5.6-12.5-12.5-12.5
		c-7,0-12.8,5.6-12.8,12.5c0,3,0.9,5.5,2.6,7.8c0.8,1.1,4.4,4,5.5,5c3.5,3.5,4.3,9.3,2,13.9c-3,6.6-10.7,9-17.1,6.1l-2.6-1.7
		c-9.6-6.9-15.9-18.3-15.9-31v-0.2c0-21,17.1-38.1,38.3-38.1c0,0,10.2,0.2,16.3,3.8c2.3-2.4,5.3-3.8,9-3.8c6.9,0,12.7,5.6,12.7,12.7
		v25.5h0.2C763.2,518.6,763.1,518.6,763.1,518.7z"/>
	<path class="st5" d="M841.9,549.7c-0.6,0.5-1.4,0.9-2.1,1.4l-0.3,0.3h-0.2c-6.3,3-13.9,0.3-16.9-5.9c-2.3-4.7-1.4-10.4,2-14
		c0.3-0.5,3.4-3,3.2-2.9c0.9-0.8,1.7-1.4,2.3-2.1c1.5-2.1,2.6-4.7,2.6-7.6c0-7-5.8-12.7-12.8-12.7c-2.1,0.2-4.9,0.3-7.9,2.9
		c-2.9,2.3-4.7,5.8-4.7,9.8v56.7c0,7-5.6,12.7-12.7,12.7s-12.8-5.6-12.8-12.7v-56.7c0.2-3.4,0.5-6.6,1.2-9.6
		c4.3-16.3,19.2-28.5,36.9-28.5c0,0,0,0,0.2,0c20.9,0,38,17.1,38,38.1C857.8,531.4,851.5,542.6,841.9,549.7z"/>
</g>
<text transform="matrix(1 0 0 1 528.3429 169.7632)" class="st4 st7 st8">Layer Lab</text>
</svg>
